<?xml version="1.0" standalone="no"?>
<!DOCTYPE svg PUBLIC "-//W3C//DTD SVG 20010904//EN"
 "http://www.w3.org/TR/2001/REC-SVG-20010904/DTD/svg10.dtd">
<svg version="1.0" xmlns="http://www.w3.org/2000/svg"
 width="155.000000pt" height="155.000000pt" viewBox="0 0 155.000000 155.000000"
 preserveAspectRatio="xMidYMid meet">
<metadata>
Created by potrace 1.15, written by Peter Selinger 2001-2017
</metadata>
<g transform="translate(0.000000,155.000000) scale(0.100000,-0.100000)"
fill="#000000" stroke="none">
<path d="M710 1522 c-93 -41 -108 -121 -70 -374 21 -139 23 -165 15 -156 -3 2
-12 54 -20 114 -21 149 -46 220 -95 272 -18 19 -31 22 -92 22 -68 0 -72 -1
-104 -36 -51 -54 -48 -113 16 -295 28 -79 49 -148 46 -154 -4 -12 -48 82 -67
144 -22 74 -90 121 -174 121 -73 0 -115 -56 -115 -150 1 -91 41 -161 171 -293
l67 -68 4 -122 c4 -107 8 -130 32 -183 15 -34 43 -77 62 -95 28 -28 34 -40 34
-76 0 -48 21 -97 54 -125 41 -35 124 -51 261 -52 117 -1 135 1 183 23 34 15
58 34 68 52 8 16 23 33 34 39 20 11 40 66 40 114 0 15 11 41 25 58 14 16 25
37 25 46 1 31 44 69 88 76 111 17 244 93 293 166 40 60 41 131 1 186 -34 46
-113 92 -175 100 l-44 6 19 60 c21 70 58 267 58 312 0 35 -38 121 -66 151 -57
61 -136 75 -210 37 -66 -34 -76 -62 -89 -263 -7 -97 -15 -182 -19 -188 -4 -6
-14 -11 -23 -11 -17 0 -17 -5 3 291 6 74 3 92 -16 137 -14 31 -40 67 -63 87
-35 30 -47 35 -91 34 -28 0 -58 -3 -66 -7z m145 -64 c60 -61 72 -118 54 -252
-29 -208 -15 -282 48 -260 47 16 63 64 63 184 0 127 15 228 38 254 22 24 74
46 110 46 41 0 91 -38 118 -90 26 -48 31 -127 15 -205 -5 -22 -14 -65 -20 -95
-6 -30 -23 -87 -37 -125 -24 -64 -34 -76 -91 -120 -64 -48 -66 -49 -129 -47
-127 5 -238 -27 -309 -89 -48 -43 -105 -159 -77 -159 4 0 15 22 25 49 21 61
97 132 165 156 26 9 92 19 147 21 134 7 132 6 204 64 57 46 67 50 114 50 88
-1 176 -58 193 -126 26 -103 -95 -211 -280 -251 l-72 -16 -28 -53 c-91 -174
-252 -229 -490 -169 -101 25 -152 28 -93 6 161 -61 340 -63 446 -5 24 13 45
24 47 24 14 0 0 -70 -20 -104 -40 -68 -91 -90 -221 -94 -112 -4 -206 7 -252
30 -41 20 -62 58 -69 123 -6 50 -13 64 -41 91 -57 54 -76 112 -81 256 l-5 127
-79 83 c-139 144 -182 230 -159 316 20 73 72 90 151 50 41 -21 47 -30 75 -103
55 -141 92 -191 126 -169 20 12 3 95 -45 223 -77 204 -61 291 52 291 37 0 53
-5 70 -23 37 -39 63 -114 81 -236 20 -128 36 -174 64 -179 37 -7 39 62 7 262
-16 102 -16 227 1 253 18 30 65 52 108 53 26 0 43 -9 76 -42z"/>
</g>
</svg>
