<?xml version="1.0" encoding="utf-8"?>
<!-- Svg Vector Icons : http://www.onlinewebfonts.com/icon -->
<!DOCTYPE svg PUBLIC "-//W3C//DTD SVG 1.1//EN" "http://www.w3.org/Graphics/SVG/1.1/DTD/svg11.dtd">
<svg version="1.1" xmlns="http://www.w3.org/2000/svg" xmlns:xlink="http://www.w3.org/1999/xlink" x="0px" y="0px" viewBox="0 0 1000 1000" enable-background="new 0 0 1000 1000" xml:space="preserve">
<metadata> Svg Vector Icons : http://www.onlinewebfonts.com/icon </metadata>
<g><g transform="translate(0.000000,511.000000) scale(0.100000,-0.100000)"><path d="M5356.3,4203.8c-1247.8-153.1-2324.2-811.3-3000.7-1839.7c-379.4-578.2-596.5-1209-660.5-1933.4l-27.4-294.8H883.9c-431.9,0-783.9-6.9-783.9-18.3c0-9.2,477.6-493.7,1062.7-1078.7l1062.7-1062.7L3288.1-961.1C3873.1-376,4350.8,108.5,4350.8,117.6c0,11.4-356.5,18.3-790.7,18.3h-793l18.3,189.7C2831,876.3,2991,1338,3288.1,1779.1C4122.3,3026.9,5706,3472.5,7065.8,2841.8C7639.4,2578.9,8197,2035,8487.3,1461.4C8581,1274,8709,896.9,8754.7,666.1c48-246.8,54.8-811.3,9.1-1055.8C8567.3-1491.3,7788-2394,6720.7-2750.5c-315.4-107.4-541.6-139.4-941.6-139.4c-287.9,0-415.9,11.4-598.8,50.3c-523.3,112-973.6,335.9-1371.2,681c-75.4,68.6-148.5,123.4-160,123.4c-9.1,0-187.4-169.1-393.1-374.8c-434.2-434.2-420.5-363.4-105.1-628.5c852.4-710.7,1972.3-1055.8,3046.4-937c1627.2,176,2977.8,1257,3489.8,2790.4c457.1,1368.9,169.1,2843-777,3969.7C8322.7,3484,7417.8,4000.4,6503.6,4160.4C6197.4,4213,5619.2,4235.8,5356.3,4203.8z"/><path d="M4990.7,124.5c0-1503.8,4.6-1794,32-1778c16,9.1,505.1,413.6,1085.6,895.8C7113.8,78.8,7161.8,122.2,7122.9,161c-80,75.4-2109.4,1757.5-2120.8,1757.5C4995.3,1918.5,4990.7,1111.8,4990.7,124.5z"/></g></g>
</svg>