<?xml version="1.0" standalone="no"?>
<!DOCTYPE svg PUBLIC "-//W3C//DTD SVG 20010904//EN"
 "http://www.w3.org/TR/2001/REC-SVG-20010904/DTD/svg10.dtd">
<svg version="1.0" xmlns="http://www.w3.org/2000/svg"
 width="155.000000pt" height="155.000000pt" viewBox="0 0 155.000000 155.000000"
 preserveAspectRatio="xMidYMid meet">
<metadata>
Created by potrace 1.15, written by Peter Selinger 2001-2017
</metadata>
<g transform="translate(0.000000,155.000000) scale(0.100000,-0.100000)"
fill="#000000" stroke="none">
<path d="M690 1429 c-223 -34 -412 -162 -502 -340 -50 -98 -68 -174 -68 -284
0 -129 39 -245 101 -301 36 -32 132 -165 155 -213 61 -131 203 -194 434 -195
168 -1 265 31 350 115 41 41 90 127 90 160 0 9 16 45 35 81 19 36 37 85 41
109 4 28 17 55 35 74 15 17 39 55 53 85 48 102 31 263 -44 415 -70 142 -158
221 -306 271 -64 21 -101 27 -194 30 -63 1 -144 -2 -180 -7z m325 -44 c151
-39 253 -122 323 -265 90 -182 93 -347 9 -445 l-34 -39 -32 48 c-33 48 -116
120 -151 131 -24 8 -25 13 -4 55 29 56 29 155 2 229 -12 36 -29 67 -37 69 -11
4 -12 0 -6 -14 51 -118 57 -203 20 -278 l-20 -40 -95 0 c-85 -1 -102 -4 -161
-32 l-67 -32 -23 47 c-31 60 -38 171 -15 237 16 47 13 72 -5 44 -39 -62 -38
-220 4 -294 l26 -46 -30 -32 c-36 -40 -53 -90 -46 -134 5 -28 2 -37 -16 -48
-63 -39 -130 -21 -189 50 -49 58 -62 125 -55 272 3 61 2 112 -2 112 -21 0 -28
-216 -10 -300 7 -32 23 -65 42 -86 l30 -35 -20 -27 c-28 -38 -83 -67 -114 -59
-53 13 -106 64 -140 134 -31 61 -34 77 -37 173 -3 87 0 122 18 186 62 228 250
382 520 427 66 11 260 6 315 -8z m113 -594 c61 -31 127 -95 151 -144 17 -35
19 -49 10 -85 -20 -89 -79 -166 -159 -207 -48 -25 -155 -45 -250 -46 -79 -1
-82 -2 -40 -10 90 -19 275 16 334 62 43 34 49 18 16 -48 -37 -73 -71 -105
-160 -147 -63 -30 -69 -31 -210 -31 -154 0 -209 10 -290 51 -53 28 -68 40 -98
78 -35 46 -29 59 17 36 48 -26 159 -46 173 -32 6 6 -7 12 -39 16 -84 12 -144
39 -200 90 -60 54 -88 94 -58 82 30 -11 98 14 132 51 31 32 34 33 55 19 28
-20 110 -21 147 -1 28 14 29 14 55 -25 30 -45 86 -85 133 -95 36 -7 143 19
143 35 0 12 4 13 -51 -4 -91 -28 -172 9 -223 104 -47 87 -23 158 76 221 72 46
122 59 213 56 59 -3 92 -10 123 -26z"/>
</g>
</svg>
