<?xml version="1.0" standalone="no"?>
<!DOCTYPE svg PUBLIC "-//W3C//DTD SVG 20010904//EN"
 "http://www.w3.org/TR/2001/REC-SVG-20010904/DTD/svg10.dtd">
<svg version="1.0" xmlns="http://www.w3.org/2000/svg"
 width="155.000000pt" height="155.000000pt" viewBox="0 0 155.000000 155.000000"
 preserveAspectRatio="xMidYMid meet">
<metadata>
Created by potrace 1.15, written by Peter Selinger 2001-2017
</metadata>
<g transform="translate(0.000000,155.000000) scale(0.100000,-0.100000)"
fill="#000000" stroke="none">
<path d="M567 1509 c-67 -16 -124 -56 -146 -103 -36 -74 -27 -251 25 -449 8
-32 14 -60 12 -61 -2 -1 -25 -15 -52 -31 -72 -41 -131 -99 -161 -158 -62 -126
-6 -352 114 -459 25 -22 56 -45 68 -50 13 -6 24 -23 27 -43 8 -42 61 -90 118
-107 48 -13 299 -17 363 -5 41 8 129 47 155 69 37 30 50 63 50 120 0 54 2 60
45 103 62 64 118 180 123 256 7 92 -41 175 -136 239 l-22 15 34 80 c20 44 37
96 40 115 3 19 10 59 15 89 14 70 13 207 -2 249 -36 98 -173 161 -257 117 -38
-20 -93 -92 -121 -161 l-23 -54 -28 77 c-15 42 -37 87 -49 99 -44 47 -125 70
-192 53z m119 -45 c48 -23 69 -53 98 -142 22 -65 26 -94 25 -187 -1 -61 -4
-137 -8 -170 -6 -59 -7 -60 -40 -65 -57 -8 -51 -30 6 -24 31 4 63 0 92 -10 24
-9 47 -14 50 -10 8 7 -28 33 -56 40 -22 6 -22 8 -16 142 5 120 10 148 38 228
39 110 85 181 130 200 28 11 40 11 82 -1 109 -32 145 -114 124 -282 -17 -137
-28 -180 -69 -263 l-37 -75 -63 -7 c-79 -9 -155 -33 -204 -64 -21 -13 -41 -24
-45 -24 -5 0 -18 16 -30 35 -32 48 -100 85 -186 99 -71 12 -72 13 -84 50 -34
100 -54 242 -51 348 3 96 5 109 27 132 27 29 111 65 154 65 16 1 44 -6 63 -15z
m-19 -629 c33 -17 65 -42 82 -66 l29 -39 -24 -46 c-26 -51 -31 -112 -13 -163
8 -24 8 -35 -1 -46 -20 -24 -55 -18 -71 11 -22 42 -149 154 -173 154 -19 -1
-18 -3 9 -22 17 -12 58 -50 93 -84 52 -53 62 -68 62 -98 0 -109 -69 -145 -171
-89 -61 33 -75 24 -19 -13 28 -18 59 -29 94 -32 65 -5 90 14 108 83 8 28 18
45 28 45 8 0 26 9 39 19 24 18 25 18 58 -5 60 -40 174 -44 264 -7 41 16 55 40
17 28 -96 -30 -127 -35 -173 -29 -93 12 -144 55 -152 128 -15 134 107 239 292
253 67 5 72 4 120 -28 110 -75 136 -177 77 -302 -57 -123 -131 -191 -239 -223
-29 -9 -53 -20 -53 -25 0 -12 41 -2 99 22 24 11 46 17 48 15 3 -2 7 -22 10
-44 4 -33 1 -44 -26 -74 -40 -46 -113 -77 -209 -88 -85 -9 -259 2 -307 20 -36
14 -75 48 -75 67 0 16 4 16 64 -2 56 -17 166 -20 166 -5 0 6 -26 10 -58 10
-80 0 -139 20 -219 73 -102 69 -140 124 -173 253 -41 159 14 272 172 353 54
27 71 31 117 27 29 -3 78 -17 108 -31z"/>
</g>
</svg>
